<?xml version="1.0" encoding="utf-8"?>
<!-- Generator: Adobe Illustrator 16.0.0, SVG Export Plug-In . SVG Version: 6.00 Build 0)  -->
<!DOCTYPE svg PUBLIC "-//W3C//DTD SVG 1.1//EN" "http://www.w3.org/Graphics/SVG/1.1/DTD/svg11.dtd">
<svg version="1.1" id="Layer_1" xmlns="http://www.w3.org/2000/svg" xmlns:xlink="http://www.w3.org/1999/xlink" x="0px" y="0px"
	 width="100px" height="100px" viewBox="0 0 100 100" enable-background="new 0 0 100 100" xml:space="preserve">
<g id="Your_Icon">
	<path d="M14.031,51.015h73.92l6.127-8.469V27.618h-0.001V19.59c0.041-2.52-1.462-2.645-2.769-3.852
		c-0.204-0.188-0.401-0.399-0.589-0.652c-3.347-4.521,0.02-13-6.174-13.075c-7.207-0.085-15.18,0.003-22.597,0.122h-19.63
		C34.901,2.014,26.927,1.925,19.72,2.011c-6.192,0.075-2.825,8.555-6.174,13.075c-0.188,0.253-0.383,0.465-0.588,0.652
		c-1.307,1.207-2.809,1.332-2.768,3.852h-0.002v8.028v1.573v0.492c-1.175,0.646-2.695,1.787-2.695,3.381c0,2.596,0,14.385,0,14.385
		s0.043,3.565,5.338,3.565"/>
	<rect x="19.214" y="4.025" width="65.842" height="12.188"/>
	<circle fill="#FFFFFF" cx="79.299" cy="7.623" r="2.058"/>
	<circle fill="#FFFFFF" cx="73.867" cy="7.623" r="2.058"/>
	<circle fill="#FFFFFF" cx="68.433" cy="7.623" r="2.058"/>
	<circle fill="#FFFFFF" cx="63" cy="7.623" r="2.058"/>
	<circle fill="#FFFFFF" cx="57.567" cy="7.623" r="2.058"/>
	<circle fill="#FFFFFF" cx="52.134" cy="7.623" r="2.058"/>
	<circle fill="#FFFFFF" cx="46.703" cy="7.623" r="2.058"/>
	<circle fill="#FFFFFF" cx="41.269" cy="7.623" r="2.059"/>
	<circle fill="#FFFFFF" cx="35.835" cy="7.623" r="2.058"/>
	<circle fill="#FFFFFF" cx="30.403" cy="7.623" r="2.058"/>
	<circle fill="#FFFFFF" cx="24.969" cy="7.623" r="2.058"/>
	<circle fill="#FFFFFF" cx="76.8" cy="12.614" r="2.058"/>
	<circle fill="#FFFFFF" cx="71.368" cy="12.614" r="2.058"/>
	<circle fill="#FFFFFF" cx="65.934" cy="12.614" r="2.058"/>
	<circle fill="#FFFFFF" cx="60.501" cy="12.614" r="2.058"/>
	<circle fill="#FFFFFF" cx="55.067" cy="12.614" r="2.058"/>
	<circle fill="#FFFFFF" cx="49.635" cy="12.614" r="2.058"/>
	<circle fill="#FFFFFF" cx="44.203" cy="12.614" r="2.058"/>
	<circle fill="#FFFFFF" cx="38.77" cy="12.614" r="2.058"/>
	<circle fill="#FFFFFF" cx="33.336" cy="12.614" r="2.058"/>
	<circle fill="#FFFFFF" cx="27.904" cy="12.614" r="2.058"/>
	<path d="M8.824,51.75c0,0-1.328-0.137-1.328,1.719s0,5.265,0,5.265s0.237,0.904,2.676,1.7C12.608,61.23,8.824,51.75,8.824,51.75z"
		/>
	<path d="M82.771,83.57l2.932-4.281c0.38-0.554,0.243-1.312-0.302-1.695c-0.545-0.385-1.293-0.246-1.673,0.308l-2.421,3.536
		L20.445,61.285l62.86,14.344c0.354,0.08,0.722-0.004,1.008-0.229l5.19-4.105c0.525-0.414,0.618-1.182,0.208-1.711
		c-0.409-0.528-1.168-0.623-1.691-0.209l-4.743,3.75L19.41,58.55l65.826,9.798c0.338,0.051,0.683-0.044,0.948-0.262l6.293-5.123
		c0.522-0.424,0.599-1.191,0.175-1.715c-0.425-0.521-1.191-0.6-1.714-0.176l-5.876,4.785l-61.154-9.104l63.151,5.763
		c0.4,0.036,0.795-0.129,1.051-0.438l5.353-6.492c0.43-0.52,0.354-1.289-0.166-1.715c-0.519-0.43-1.285-0.354-1.715,0.166
		l-4.941,5.992l-58.833-5.365l59.82,1.502c0.398,0.012,0.778-0.176,1.015-0.496l5.599-7.663c0.398-0.542,0.278-1.305-0.265-1.704
		c-0.543-0.396-1.306-0.278-1.702,0.265l-5.224,7.145L8.822,51.75c-0.672-0.018-1.23,0.515-1.248,1.188c0,0.012,0,0.021,0,0.031
		c0,0.043,0.021,0.081,0.024,0.121c-0.008,0.078-0.013,0.16-0.024,0.238c0.045,0.092,0.096,0.184,0.133,0.279
		c0.102,0.258,0.164,0.526,0.199,0.799c0.008,0.045,0.004,0.09,0.01,0.137c0.021,0.232,0.026,0.469,0.01,0.703
		c-0.037,0.528-0.166,1.056-0.393,1.535l0.235,0.036c-0.049,0.095-0.104,0.187-0.129,0.296c-0.019,0.079-0.024,0.158-0.026,0.236
		c-0.039,0.018-0.082,0.018-0.119,0.036v2.139c0.062,0.032,0.114,0.074,0.185,0.097L81.41,84.035
		C81.915,84.203,82.47,84.013,82.771,83.57z"/>
	<path d="M79.102,88.017l0.16-0.427L7.485,60.719l-0.157,0.427c-2.774,7.41-0.975,14.938,4.021,16.808l53.688,20.1
		C70.029,99.922,76.327,95.428,79.102,88.017z"/>
	<circle cx="48.554" cy="81.556" r="1.88"/>
	<circle cx="43.905" cy="79.814" r="1.881"/>
	<circle cx="39.257" cy="78.074" r="1.88"/>
	<circle cx="34.608" cy="76.334" r="1.88"/>
	<circle cx="46.956" cy="85.824" r="1.88"/>
	<circle cx="42.307" cy="84.084" r="1.88"/>
	<circle cx="37.658" cy="82.344" r="1.88"/>
	<circle cx="33.01" cy="80.604" r="1.88"/>
</g>
</svg>
