<?xml version="1.0" encoding="utf-8"?>
<!-- Generator: Adobe Illustrator 16.0.0, SVG Export Plug-In . SVG Version: 6.00 Build 0)  -->
<!DOCTYPE svg PUBLIC "-//W3C//DTD SVG 1.1//EN" "http://www.w3.org/Graphics/SVG/1.1/DTD/svg11.dtd">
<svg version="1.1" id="Layer_1" xmlns="http://www.w3.org/2000/svg" xmlns:xlink="http://www.w3.org/1999/xlink" x="0px" y="0px"
	 width="100px" height="100px" viewBox="0 0 100 100" enable-background="new 0 0 100 100" xml:space="preserve">
<g id="Captions">
</g>
<g id="Your_Icon">
	<path d="M43.684,97.921l12.595-0.006c3.207-0.001,3.789-0.669,3.789-3.79l0.009-16.086l15.14,0.005L50,52.828L24.763,78.065
		l15.139-0.02l-0.005,16.089C39.896,97.198,40.534,97.923,43.684,97.921z M56.316,2.079L43.722,2.084
		c-3.208-0.001-3.789,0.667-3.789,3.789L39.925,21.96l-15.14-0.005L50,47.171l25.238-25.237l-15.141,0.018l0.007-16.085
		C60.105,2.801,59.465,2.078,56.316,2.079z"/>
</g>
</svg>
