<svg xmlns="http://www.w3.org/2000/svg" width="94.167" height="94.166" viewBox="3.135 4.716 94.167 94.166" enable-background="new 3.135 4.716 94.167 94.166"><ellipse cx="197.327" cy="15.819" rx="19.364" ry="19.577"/><polyline points="187.566,50.479 197.148,40.792 207.458,50.327 197.986,79.801 187.566,50.479"/><polyline points="186.062,45.872 187.203,48.787 196.223,39.792"/><polyline points="208.591,45.872 207.637,48.677 198.186,39.683"/><path d="M193.361 89.152l-16.805-50.5s-17.103-2.909-19.086 6.916v36.636"/><path d="M237.195 82.203v-36.636c-1.985-9.825-19.088-6.916-19.088-6.916l-16.803 50.501m28.238-18.452h-11.292l-1-10.563h13.292l-1 10.563z"/><rect x="219.25" y="61.875" width="9.48" height="1.042"/><polygon points="-229.52,-264.188 -239.152,-258.821 -205.845,-258.821 -214.84,-264.188"/><path d="M-139.569 138.422c0 1.332-1.08 2.411-2.411 2.411h-4.196c-1.331 0-2.411-1.079-2.411-2.411s1.08-2.411 2.411-2.411h4.196c1.331 0 2.411 1.079 2.411 2.411zM-91.5 125.875s3.009 9.75 14.004 9.25"/><path d="M-242.995-256.659c-16.44 6.478-5.729 34.149-5.729 34.149l28.013.011-1.44-23.579-20.844-10.581zM-201.49-256.667c16.44 6.478 5.729 34.149 5.729 34.149l-26.527.01.136-23.57 20.662-10.589zM-54.454 124.383l-2.687-.73s4.284-1.813 4.792-2.396c.508-.581.726-10.528.726-10.528s6.752-10.455 15.174 0v7.986s2.687 4.938 4.356 5.083c1.669.146-1.815.585-1.815.585s1.705.794 2.268.794-3.134 5.519-6.041 3.776l-1.6-2.979-.726-2.031-2.033-1.31s-2.323-1.017-2.904-1.017h-3.831l-1.542.729-.581.579-.073.437 1.307 1.889s-1.67 4.021-3.267 4.043c0 0-5.308-.938-3.558-3.825 1.752-2.889 2.035-1.085 2.035-1.085z"/><circle cx="55.13" cy="146.365" r="16.251"/><circle cx="92.68" cy="146.365" r="16.251"/><polygon points="129.053,174.05 129.053,203.505 110.77,196.396 110.77,181.837"/><path d="M105.574 165.869h-62.291c-3.421 0-6.195 2.773-6.195 6.195v33.424c0 3.424 2.774 6.197 6.195 6.197h62.291c3.422 0 6.195-2.773 6.195-6.197v-33.424c.001-3.421-2.773-6.195-6.195-6.195zm-13.024 35.61h-36.241v-25.4h36.241v25.4zm9.602-23.154c-1.883 0-3.407-1.526-3.407-3.408s1.524-3.407 3.407-3.407c1.882 0 3.406 1.525 3.406 3.407s-1.524 3.408-3.406 3.408z"/><ellipse cx="-154.561" cy="-47.604" rx="14.969" ry="14.818"/><ellipse cx="-184.5" cy="-47.604" rx="14.969" ry="14.818"/><polygon points="-130.401,-36.728 -130.401,-11.702 -150.361,-18.089 -150.361,-29.582"/><rect x="-176.244" y="-12.702" width="15.193" height="16.229"/><rect x="-171.75" y="2.528" width="6.419" height="26.965"/><path d="M-184.162 30.636"/><polygon points="-186.719,25.785 -175.211,-2.035 -171.75,3.528 -183.129,28.352"/><polygon points="-150.362,25.785 -161.87,-2.035 -165.331,3.528 -153.952,28.352"/><path d="M-191.784-34.155v22.454h44.151v-22.454h-44.151zm41.423 19.363h-3.075v-16.822h3.075v16.822zM108.932-162.246c-26.371 0-47.75 21.379-47.75 47.75 0 26.372 21.379 47.75 47.75 47.75 26.373 0 47.75-21.378 47.75-47.75 0-26.371-21.377-47.75-47.75-47.75zm-16.762 55.398v7.025h-7.025v-7.025h7.025zm7.025-7.033v7.025h-7.025v-7.025h7.025zm6.938-7.062v7.025h-7.025v-7.025h7.025zm6.937-7.063v7.025h-7.025v-7.025h7.025zm7.067 7v7.025h-7.025v-7.025h7.025zm7.024 7.063v7.025h-7.024v-7.025h7.024zm6.999 7.017v7.025h-7.025v-7.025h7.025z"/><path fill="#999" d="M50.219 4.716c-26.004 0-47.084 21.08-47.084 47.083s21.08 47.083 47.084 47.083 47.083-21.08 47.083-47.083-21.079-47.083-47.083-47.083zm-.163 88.277c-22.751 0-41.195-18.443-41.195-41.193s18.443-41.194 41.194-41.194c22.75 0 41.194 18.443 41.194 41.194.001 22.75-18.442 41.193-41.193 41.193z"/><polygon fill="#fff" points="29.422,45.979 28.328,47.613 49.65,65.357 50.896,64.049"/><polygon fill="#fff" points="49.972,64.886 48.83,63.284 69.621,44.918 70.904,46.191"/><circle cx="-467.445" cy="-104.462" r="5.937"/><polygon points="-442.482,-145.438 -439.768,-142.724 -463.188,-108.595 -466.011,-110.399"/><polygon points="-464.563,-98.526 -442.482,-75.359 -437.921,-81.729 -462.274,-101.552"/><rect x="-519.874" y="-108.595" width="15.348" height="5.725"/><rect x="-413.016" y="-108.595" width="15.348" height="5.725"/><rect x="-472.234" y="-163.607" transform="matrix(-.015 1 -1 -.015 -632.292 301.338)" width="15.348" height="5.725"/><rect x="-473.68" y="-55.014" transform="matrix(-.015 1 -1 -.015 -525.193 413.013)" width="15.348" height="5.725"/><polygon points="-499.604,-24.97 -490.047,-20.916 -494.825,-0.066 -509.16,-5.857"/><polygon points="-405.342,-19.757 -395.642,-24.97 -382.321,1.093 -397.668,8.5"/><path d="M-507.986-155.092s-61.704 65.52 57.69 128.066v5.207s-130.809-42.983-64.204-133.273h6.514zM-406.052-182.313s-61.704 65.52 57.69 128.066v5.207s-130.809-42.983-64.204-133.273h6.514zM254.046 282.677h-69.593c-5.055 0-9.154 4.099-9.154 9.154v59.584c0 5.058 4.1 9.153 9.154 9.153h69.593c5.056 0 9.154-4.098 9.154-9.153v-59.584c0-5.058-4.098-9.154-9.154-9.154zm4.465 30.203c0 5.455-4.515 9.878-10.079 9.878h-58.068c-5.567 0-10.079-4.423-10.079-9.878v-11.207c0-5.455 4.512-9.879 10.079-9.879h58.068c5.564 0 10.079 4.424 10.079 9.879v11.207zM199.584 297.979c0 2.696-2.188 4.885-4.886 4.885s-4.886-2.188-4.886-4.885v-18.594c0-2.697 2.188-4.885 4.886-4.885s4.886 2.188 4.886 4.885v18.594zM215.262 297.979c0 2.696-2.188 4.885-4.885 4.885-2.699 0-4.885-2.188-4.885-4.885v-18.594c0-2.697 2.186-4.885 4.885-4.885 2.697 0 4.885 2.188 4.885 4.885v18.594zM232.759 297.979c0 2.696-2.188 4.885-4.887 4.885-2.698 0-4.886-2.188-4.886-4.885v-18.594c0-2.697 2.188-4.885 4.886-4.885s4.887 2.188 4.887 4.885v18.594zM249.118 297.979c0 2.696-2.188 4.885-4.888 4.885-2.696 0-4.883-2.188-4.883-4.885v-18.594c0-2.697 2.187-4.885 4.883-4.885 2.699 0 4.888 2.188 4.888 4.885v18.594z"/><rect x="448.255" y="73.925" width="10.593" height="75.459"/><rect x="524.034" y="73.925" width="10.59" height="75.459"/><rect x="448.255" y="137.915" width="86.369" height="11.469"/><rect x="464.412" y="95.676" width="11.128" height="10.521"/><rect x="485.876" y="95.676" width="11.129" height="10.521"/><rect x="507.724" y="95.676" width="11.127" height="10.521"/><rect x="464.412" y="117.115" width="11.128" height="10.521"/><rect x="485.876" y="117.115" width="11.129" height="10.521"/><rect x="507.724" y="117.115" width="11.127" height="10.521"/><path d="M480.5 79.74c0 3.072-2.49 5.564-5.562 5.564-3.073 0-5.564-2.492-5.564-5.564v-11.164c0-3.072 2.491-5.562 5.564-5.562 3.071 0 5.562 2.49 5.562 5.562v11.164zM513.288 79.508c0 3.073-2.492 5.564-5.563 5.564-3.073 0-5.563-2.491-5.563-5.564v-11.162c0-3.074 2.49-5.563 5.563-5.563 3.07 0 5.563 2.489 5.563 5.563v11.162zM328.966 355.511v57.148l49.618 13.174v-53.553l-49.618-16.769zm38.325 42.314l-28.401-6.673v-19.334l28.401 7.356v18.651z"/><polyline points="395.062,363.938 395.751,418.039 380.658,425.206 380.658,371.962"/><polygon points="380.25,370.75 330,353.375 338.545,342.521 394.605,362.162"/><rect x="373.127" y="-197.854" width="5.457" height="79.389"/><rect x="311.938" y="-123.72" width="66.629" height="5.457"/><rect x="311.938" y="-203.243" width="6.436" height="10.559"/><rect x="311.938" y="-179.065" width="6.459" height="9.276"/><rect x="311.938" y="-159.874" width="6.459" height="9.277"/><rect x="312.371" y="-138.467" width="6.023" height="9.359"/><rect x="-59.815" y="673.615" width="3.968" height="1.983"/><path d="M318.372-203.243v74.136h50.936v-74.136h-50.936zm44.205 38.043h-36.565v-26.273h36.565v26.273z"/><rect x="330.562" y="-185.115" width="27.103" height="4.638"/><rect x="330.562" y="-176.04" width="27.103" height="4.638"/><polygon points="557.964,-48.615 571.741,-34.839 571.741,-11.554 543.922,-11.554 543.922,-35.554"/><polygon points="587.611,-48.18 601.389,-34.403 601.389,-11.118 573.569,-11.118 573.569,-35.118"/><path d="M572.443-84.089c-10.694 0-19.364 8.765-19.364 19.577s8.67 19.576 19.364 19.576c10.693 0 19.363-8.765 19.363-19.576.002-10.812-8.668-19.577-19.363-19.577zm-8.922 17.188c-1.471 0-2.661-1.191-2.661-2.662 0-1.47 1.19-2.661 2.661-2.661s2.661 1.191 2.661 2.661c.002 1.47-1.19 2.662-2.661 2.662zm3.066 9.787h11.712c-6.094 5.448-11.712 0-11.712 0zm14.52-9.787c-1.472 0-2.662-1.191-2.662-2.662 0-1.47 1.19-2.661 2.662-2.661 1.47 0 2.66 1.191 2.66 2.661.002 1.47-1.19 2.662-2.66 2.662z"/></svg>